<?xml version="1.0" encoding="UTF-8"?>
<!--Generator: Apple Native CoreSVG 175.5-->
<!DOCTYPE svg
PUBLIC "-//W3C//DTD SVG 1.1//EN"
       "http://www.w3.org/Graphics/SVG/1.1/DTD/svg11.dtd">
<svg version="1.1" xmlns="http://www.w3.org/2000/svg" xmlns:xlink="http://www.w3.org/1999/xlink" width="49.8028" height="50.5989">
 <g>
  <rect height="50.5989" opacity="0" width="49.8028" x="0" y="0"/>
  <path d="M8.53745 47.7526L25.3812 30.9088L19.8812 25.4401L3.03745 42.2838L0.0686977 49.2213C-0.243802 49.9713 0.568698 50.8463 1.3187 50.5338ZM33.9124 22.4088L42.6312 13.6901L37.1624 8.19005L28.4437 16.9401ZM45.3812 11.0026L48.5374 7.9088C50.1312 6.31505 50.2249 4.62755 48.7874 3.1588L47.7249 2.12755C46.2874 0.690051 44.5687 0.846301 43.0062 2.37755L39.8187 5.50255ZM45.1937 45.6588C46.1312 46.5963 47.6937 46.5963 48.5999 45.6588C49.5062 44.6901 49.5374 43.1901 48.5999 42.2526L9.3187 2.9713C8.3812 2.0338 6.78745 2.00255 5.8812 2.9713C4.9437 3.87755 4.9437 5.4713 5.8812 6.37755Z" fill="#ffffff" fill-opacity="0.85"/>
 </g>
</svg>
