<?xml version="1.0" encoding="UTF-8"?>
<!--Generator: Apple Native CoreSVG 175.5-->
<!DOCTYPE svg
PUBLIC "-//W3C//DTD SVG 1.1//EN"
       "http://www.w3.org/Graphics/SVG/1.1/DTD/svg11.dtd">
<svg version="1.1" xmlns="http://www.w3.org/2000/svg" xmlns:xlink="http://www.w3.org/1999/xlink" width="66.2841" height="63.326">
 <g>
  <rect height="63.326" opacity="0" width="66.2841" x="0" y="0"/>
  <path d="M1.3722 40.2099C2.9972 41.8349 6.27845 42.2411 8.8097 39.9599C9.65345 39.2099 11.4035 37.3349 14.7472 33.9911C30.716 17.8036 41.2472 7.17863 43.4972 9.20988C45.3097 10.8036 39.7785 18.6161 34.5285 25.8661C24.6847 39.5849 16.841 49.0849 22.6535 54.8974C27.3097 59.5536 34.5597 54.8661 45.716 45.0849C51.9972 39.5536 56.716 35.0849 58.091 36.4911C59.1222 37.4911 57.5285 40.1474 55.1847 44.2099C52.1535 49.3974 48.3722 54.9599 51.9972 58.5849C54.4972 61.0536 59.341 59.9911 65.3097 54.1474C66.3722 53.0849 66.6222 51.8974 65.7785 51.0536C64.966 50.2724 63.841 50.3974 62.9972 51.1786C58.6535 55.4286 55.8097 56.7724 55.091 56.0224C54.2472 55.2099 55.7785 52.4286 58.966 46.8349C62.9972 39.7724 65.1535 35.3349 61.7472 32.0224C57.1847 27.5849 51.7785 32.3349 41.7785 41.1161C32.3722 49.3974 29.6222 50.7411 28.4347 49.5849C26.841 47.9599 29.2785 45.0849 39.8097 30.3661C49.6535 16.5849 55.3722 7.99113 50.0285 2.83488C42.7472-4.25887 33.3722 1.33488 7.6847 26.7411C4.27845 30.1161 2.40345 31.8974 1.65345 32.7099C-0.752798 35.3661-0.252798 38.5849 1.3722 40.2099Z" fill="#ffffff" fill-opacity="0.85"/>
 </g>
</svg>
