<?xml version="1.0" encoding="UTF-8"?>
<!--Generator: Apple Native CoreSVG 175.5-->
<!DOCTYPE svg
PUBLIC "-//W3C//DTD SVG 1.1//EN"
       "http://www.w3.org/Graphics/SVG/1.1/DTD/svg11.dtd">
<svg version="1.1" xmlns="http://www.w3.org/2000/svg" xmlns:xlink="http://www.w3.org/1999/xlink" width="63.75" height="63.7812">
 <g>
  <rect height="63.7812" opacity="0" width="63.75" x="0" y="0"/>
  <path d="M31.875 63.7812C49.3125 63.7812 63.75 49.3438 63.75 31.9062C63.75 14.5 49.2812 0.03125 31.8438 0.03125C14.4375 0.03125 0 14.5 0 31.9062C0 49.3438 14.4688 63.7812 31.875 63.7812ZM11.5938 26.3438C11.5938 25.625 12.0625 24.8125 13.0312 24.375L27.8125 17.625C29.375 16.9375 30.5938 16.5938 31.8438 16.625C33.0938 16.5938 34.3438 16.9375 35.875 17.625L50.6875 24.375C51.6562 24.8125 52.0938 25.625 52.0938 26.3438C52.0938 27.125 51.6562 27.875 50.6875 28.3125L35.875 35.125C34.3438 35.8125 33.0938 36.125 31.8438 36.0938C30.5938 36.125 29.375 35.8125 27.8125 35.125L21.4688 32.1875L30.4688 27.9688C30.9062 28.0938 31.4062 28.1562 31.9062 28.1562C33.5625 28.1562 35.1875 27.4062 35.1875 26.3438C35.1875 25.3125 33.5625 24.625 31.9062 24.625C30.2812 24.625 28.5938 25.3125 28.5938 26.3438C28.5938 26.4688 28.625 26.625 28.6875 26.7188L19.1875 31.125L13.0312 28.3125C12.0625 27.875 11.5938 27.125 11.5938 26.3438ZM17.25 37.6875L17.25 32.5938L19.25 33.5312L19.25 41.9375C17.9688 40.5625 17.25 39 17.25 37.6875ZM18.1875 49.7188L18.1875 46.4688C18.1875 45.5938 18.5938 44.9688 19.25 44.6875L19.25 41.9375C19.875 42.5625 20.5625 43.125 21.4062 43.5938L21.4062 44.7188C22.0312 45 22.4688 45.625 22.4688 46.4688L22.4688 49.7188C22.4688 50.9062 21.6875 51.6562 20.5 51.6562L20.125 51.6562C18.9062 51.6562 18.1875 50.9062 18.1875 49.7188ZM21.4062 43.5938L21.4062 34.5L26.9375 37.0625C28.7188 37.875 30.3438 38.2812 31.8438 38.25C33.3438 38.2812 34.9688 37.875 36.75 37.0625L46.4375 32.5938L46.4375 37.6875C46.4375 42.1875 40.7812 46 31.8438 46C27.5 46 23.9062 45.125 21.4062 43.5938Z" fill="#ffffff" fill-opacity="0.85"/>
 </g>
</svg>
