<?xml version="1.0" encoding="UTF-8"?>
<!--Generator: Apple Native CoreSVG 175.5-->
<!DOCTYPE svg
PUBLIC "-//W3C//DTD SVG 1.1//EN"
       "http://www.w3.org/Graphics/SVG/1.1/DTD/svg11.dtd">
<svg version="1.1" xmlns="http://www.w3.org/2000/svg" xmlns:xlink="http://www.w3.org/1999/xlink" width="74.7593" height="71.3438">
 <g>
  <rect height="71.3438" opacity="0" width="74.7593" x="0" y="0"/>
  <path d="M3.84375 69.1562L9.75 69.1562C12.2188 69.1562 13.5938 67.75 13.5938 65.3125L13.5938 12.5312C13.5938 10.0625 12.2188 8.65625 9.75 8.65625L3.84375 8.65625C1.34375 8.65625 0 10.0625 0 12.5312L0 65.3125C0 67.75 1.34375 69.1562 3.84375 69.1562ZM21.0938 69.1562L33.75 69.1562C36.25 69.1562 37.5938 67.75 37.5938 65.3125L37.5938 23.1875C37.5938 20.75 36.25 19.3438 33.75 19.3438L21.0938 19.3438C18.5938 19.3438 17.2188 20.75 17.2188 23.1875L17.2188 65.3125C17.2188 67.75 18.5938 69.1562 21.0938 69.1562ZM24.0625 30.5C22.9375 30.5 22.0938 29.6562 22.0938 28.5625C22.0938 27.5 22.9375 26.6562 24.0625 26.6562L30.8438 26.6562C31.9375 26.6562 32.75 27.5 32.75 28.5625C32.75 29.6562 31.9375 30.5 30.8438 30.5ZM24.0625 61.875C22.9375 61.875 22.0938 61.0312 22.0938 59.9375C22.0938 58.875 22.9375 58.0312 24.0625 58.0312L30.8438 58.0312C31.9375 58.0312 32.75 58.875 32.75 59.9375C32.75 61.0312 31.9375 61.875 30.8438 61.875ZM45.0938 69.1562L52.8125 69.1562C55.3125 69.1562 56.6562 67.75 56.6562 65.3125L56.6562 3.875C56.6562 1.40625 55.3125 0 52.8125 0L45.0938 0C42.5938 0 41.25 1.40625 41.25 3.875L41.25 65.3125C41.25 67.75 42.5938 69.1562 45.0938 69.1562ZM66.3438 69.3125L71.375 68.5938C73.8125 68.2812 75 66.7812 74.7188 64.3125L68.75 12.4688C68.4688 10.0312 67 8.75 64.5 9.09375L59.5 9.8125C57.0312 10.125 55.8438 11.625 56.125 14.0625L62.125 65.9062C62.4062 68.3438 63.875 69.625 66.3438 69.3125Z" fill="#ffffff" fill-opacity="0.85"/>
 </g>
</svg>
