<?xml version="1.0" encoding="UTF-8"?>
<!--Generator: Apple Native CoreSVG 175.5-->
<!DOCTYPE svg
PUBLIC "-//W3C//DTD SVG 1.1//EN"
       "http://www.w3.org/Graphics/SVG/1.1/DTD/svg11.dtd">
<svg version="1.1" xmlns="http://www.w3.org/2000/svg" xmlns:xlink="http://www.w3.org/1999/xlink" width="71.9688" height="57.4062">
 <g>
  <rect height="57.4062" opacity="0" width="71.9688" x="0" y="0"/>
  <path d="M17.625 0C10.75 0 3.59375 3.1875 0.375 8.71875C0.03125 9.34375 0 9.75 0 10.9062L0 55C0 56.4375 0.90625 57.3125 2.46875 57.3125C3.21875 57.3125 3.9375 57.0938 4.5 56.5625C8.4375 53.1875 13.6562 51.4375 18.875 51.4375C23.75 51.4375 28.2812 53.1562 31.5938 56C31.9375 56.2812 32.3438 56.4375 32.6875 56.4375C33.375 56.4375 33.9375 55.9375 33.9375 55.125L33.9375 8.90625C33.9375 8.09375 33.875 7.90625 33.2812 7.0625C30.2188 2.65625 24.2188 0 17.625 0ZM54.3438 0C47.75 0 41.75 2.65625 38.6875 7.0625C38.0938 7.90625 38.0312 8.09375 38.0312 8.90625L38.0312 55.125C38.0312 55.9375 38.5938 56.4375 39.2812 56.4375C39.625 56.4375 40.0625 56.2812 40.375 56C43.6875 53.1562 48.2188 51.4375 53.0938 51.4375C58.3125 51.4375 63.5312 53.1875 67.4688 56.5625C68.0312 57.0938 68.75 57.3125 69.5 57.3125C71.0625 57.3125 71.9688 56.4375 71.9688 55L71.9688 10.9062C71.9688 9.75 71.9375 9.3125 71.5938 8.71875C68.375 3.1875 61.2188 0 54.3438 0Z" fill="#ffffff" fill-opacity="0.85"/>
 </g>
</svg>
